<svg preserveAspectRatio="xMidYMid meet" width="24" height="24" overflow="visible" style="display: block;" viewBox="0 0 24 24" fill="none" xmlns="http://www.w3.org/2000/svg">
<g id="&#232;&#129;&#138;&#229;&#164;&#169;&#233;&#161;&#181;&#229;&#183;&#165;&#229;&#133;&#183;&#230;&#160;&#143;">
<path id="Union" d="M21.5907 10.0625C21.5907 9.2992 21.5886 8.84898 21.5595 8.52832C21.558 8.51181 21.5542 8.49592 21.5527 8.48145C21.539 8.48561 21.5232 8.48814 21.5077 8.49316C21.2015 8.59269 20.7866 8.76862 20.0849 9.06934L18.2948 9.83691C18.1518 9.89822 18.0399 9.94583 17.9443 9.98828C17.9032 10.0065 17.8686 10.0243 17.8388 10.0381C17.8378 10.0707 17.8364 10.1089 17.8359 10.1533C17.8345 10.258 17.8339 10.3795 17.8339 10.5352V13.4648C17.8339 13.6207 17.8345 13.7419 17.8359 13.8467C17.8364 13.8916 17.8378 13.93 17.8388 13.9629C17.8686 13.9767 17.9033 13.9935 17.9443 14.0117C18.04 14.0542 18.1517 14.1017 18.2948 14.1631L20.0849 14.9307C20.7867 15.2314 21.2015 15.4073 21.5077 15.5068C21.5234 15.5119 21.5388 15.5153 21.5527 15.5195C21.5542 15.505 21.5579 15.4893 21.5595 15.4727C21.5887 15.1521 21.5907 14.7019 21.5907 13.9385V10.0625ZM7.00969 6.2998C5.8602 6.2998 5.10489 6.30155 4.52824 6.34863C3.97341 6.394 3.74208 6.47295 3.61027 6.54004C3.19662 6.75089 2.86022 7.08735 2.64933 7.50098C2.58221 7.63272 2.50334 7.8636 2.45793 8.41895C2.41081 8.99565 2.4091 9.75058 2.4091 10.9004V13.0996C2.4091 14.2494 2.41081 15.0043 2.45793 15.5811C2.50334 16.1364 2.58221 16.3673 2.64933 16.499C2.86022 16.9127 3.19662 17.2491 3.61027 17.46C3.74208 17.527 3.97341 17.606 4.52824 17.6514C5.10489 17.6984 5.8602 17.7002 7.00969 17.7002H11.2089C12.3584 17.7002 13.1137 17.6985 13.6904 17.6514C14.2454 17.606 14.4766 17.5271 14.6083 17.46C15.0219 17.2491 15.3584 16.9126 15.5693 16.499C15.6364 16.3672 15.7153 16.1361 15.7607 15.5811C15.8078 15.0044 15.8095 14.2494 15.8095 13.0996V10.9004C15.8095 9.75061 15.8078 8.99565 15.7607 8.41895C15.7153 7.86385 15.6364 7.63276 15.5693 7.50098C15.3584 7.08738 15.0219 6.75093 14.6083 6.54004C14.4766 6.47293 14.2454 6.39405 13.6904 6.34863C13.1137 6.30152 12.3584 6.29981 11.2089 6.2998H7.00969ZM23.3905 13.9385C23.3905 15.3049 23.3904 16.0312 23.1376 16.4922L23.0839 16.5811C22.849 16.9296 22.5 17.1837 22.1005 17.3018L21.9267 17.3447C21.5219 17.4214 21.0432 17.279 20.2646 16.9609L19.3759 16.585L17.5859 15.8174C17.5723 15.8116 17.5591 15.8055 17.5458 15.7998C17.4895 16.4303 17.3837 16.9043 17.1737 17.3164L17.0195 17.5918C16.6352 18.2182 16.084 18.7289 15.4257 19.0645L15.2616 19.1406C14.4254 19.4999 13.3089 19.5 11.2089 19.5H7.00969L5.52531 19.4932C4.33388 19.4744 3.57011 19.4039 2.95695 19.1406L2.79289 19.0645C2.1345 18.7289 1.58342 18.2182 1.19914 17.5918L1.04484 17.3164C0.608869 16.4608 0.609296 15.3398 0.609296 13.0996V10.9004C0.609296 8.66018 0.608869 7.53924 1.04484 6.68359C1.42832 5.93118 2.04045 5.31898 2.79289 4.93555C3.43448 4.60877 4.22563 4.52728 5.52531 4.50684L7.00969 4.5H11.2089C13.4488 4.5 14.5701 4.4996 15.4257 4.93555C16.178 5.31903 16.7903 5.93122 17.1737 6.68359C17.3836 7.09545 17.4895 7.56919 17.5458 8.19922C17.5589 8.1936 17.5724 8.18838 17.5859 8.18262L19.3759 7.41504C20.716 6.84073 21.3868 6.55386 21.9267 6.65625L22.1005 6.69824C22.5002 6.81631 22.849 7.07021 23.0839 7.41895L23.1376 7.50781C23.3905 7.9689 23.3905 8.69544 23.3905 10.0625V13.9385Z" fill="var(--fill-0, black)"/>
</g>
</svg>
