<svg preserveAspectRatio="xMidYMid meet" width="24" height="24" overflow="visible" style="display: block;" viewBox="0 0 21 18.1553" fill="none" xmlns="http://www.w3.org/2000/svg">
<path id="Union" d="M10.1777 10.5605C10.3826 10.4693 10.6174 10.4693 10.8223 10.5605C11.0569 10.6653 11.2371 10.9768 11.5967 11.5996L14.2842 16.2559C14.644 16.8791 14.8247 17.1906 14.7979 17.4463C14.7744 17.6694 14.657 17.8721 14.4756 18.0039C14.2676 18.155 13.9072 18.1553 13.1875 18.1553H7.81152C7.09218 18.1553 6.73244 18.1549 6.52441 18.0039C6.34296 17.8721 6.22559 17.6694 6.20215 17.4463C6.17531 17.1906 6.35514 16.8789 6.71484 16.2559L9.40332 11.5996C9.76295 10.9767 9.943 10.6653 10.1777 10.5605ZM14.5996 1.6328e-09C16.8398 1.6328e-09 17.9608 -0.000427067 18.8164 0.435547C19.5688 0.819022 20.181 1.43115 20.5645 2.18359C21.0002 3.03919 21 4.16052 21 6.40039V9.59961L20.9932 11.084C20.9727 12.3836 20.8914 13.1748 20.5645 13.8164L20.4102 14.0918C20.0259 14.7181 19.4748 15.229 18.8164 15.5645L18.6523 15.6406C18.2107 15.8303 17.6908 15.919 16.9893 15.9609C16.7846 15.9732 16.6822 15.9792 16.5869 15.9531C16.5016 15.9298 16.4249 15.8891 16.3574 15.832C16.2821 15.7682 16.2233 15.6701 16.1055 15.4746C16.0697 15.4152 16.0336 15.3569 15.999 15.2998C15.8941 15.1268 15.8416 15.0397 15.8203 14.9756C15.7095 14.6418 15.8947 14.2981 16.2344 14.207C16.2996 14.1895 16.4064 14.1858 16.6201 14.1777C16.7866 14.1714 16.9393 14.1629 17.0811 14.1514C17.6361 14.106 17.8672 14.0271 17.999 13.96C18.4126 13.7491 18.7491 13.4126 18.96 12.999C19.0271 12.8673 19.106 12.6361 19.1514 12.0811C19.1985 11.5044 19.2002 10.7491 19.2002 9.59961V6.40039C19.2002 5.25091 19.1984 4.49559 19.1514 3.91895C19.106 3.36412 19.027 3.13279 18.96 3.00098C18.7491 2.58732 18.4127 2.25093 17.999 2.04004C17.8673 1.97291 17.6364 1.89404 17.0811 1.84863C16.5043 1.80151 15.7494 1.7998 14.5996 1.7998H6.40039C5.25058 1.7998 4.49565 1.80151 3.91895 1.84863C3.3636 1.89404 3.13272 1.97291 3.00098 2.04004C2.58735 2.25093 2.25089 2.58732 2.04004 3.00098C1.97295 3.13279 1.894 3.36412 1.84863 3.91895C1.80155 4.49559 1.7998 5.25091 1.7998 6.40039V9.59961C1.79981 10.7491 1.80152 11.5044 1.84863 12.0811C1.89405 12.6361 1.97293 12.8673 2.04004 12.999C2.25093 13.4126 2.58738 13.7491 3.00098 13.96C3.13276 14.0271 3.36385 14.106 3.91895 14.1514C4.06046 14.1629 4.21273 14.1714 4.37891 14.1777C4.59298 14.1859 4.70029 14.1895 4.76563 14.207C5.10481 14.2982 5.28983 14.6412 5.17969 14.9746C5.15842 15.0388 5.1059 15.1265 5.00098 15.2998C4.96624 15.3571 4.93052 15.416 4.89453 15.4756C4.77627 15.6713 4.717 15.7694 4.6416 15.833C4.57404 15.89 4.4974 15.9299 4.41211 15.9531C4.31695 15.979 4.21448 15.9732 4.00977 15.9609C3.30877 15.919 2.78916 15.8303 2.34766 15.6406L2.18359 15.5645C1.52525 15.229 0.974124 14.7181 0.589844 14.0918L0.435547 13.8164C-0.000395387 12.9608 -5.81209e-08 11.8395 1.62616e-09 9.59961V6.40039C1.62595e-09 4.16052 -0.000229448 3.03919 0.435547 2.18359C0.818982 1.43115 1.43118 0.819022 2.18359 0.435547C2.82525 0.108607 3.61608 0.0272849 4.91602 0.00683594L6.40039 1.6328e-09H14.5996Z" fill="var(--fill-0, black)"/>
</svg>
