<svg preserveAspectRatio="xMidYMid meet" width="24" height="24" overflow="visible" style="display: block;" viewBox="0 0 20.1598 20.1598" fill="none" xmlns="http://www.w3.org/2000/svg">
<path id="Union" d="M10.5504 1.44375C10.9976 1.4879 11.2351 1.77299 11.1973 2.2207C11.1943 2.25601 11.1745 2.36601 11.134 2.58516C11.1078 2.72687 11.0944 2.79823 11.0871 2.82539C10.9998 3.15258 10.7849 3.33108 10.4473 3.35742C10.4193 3.35959 10.3721 3.35977 10.2785 3.35977H6.71953C5.69573 3.35977 4.98531 3.36036 4.43321 3.40547C3.89241 3.44967 3.58806 3.53232 3.36094 3.64805C2.86448 3.9011 2.46087 4.30471 2.20782 4.80117C2.09209 5.02829 2.00944 5.33264 1.96524 5.87344C1.92013 6.42554 1.91953 7.13596 1.91953 8.15977V13.4402C1.91953 14.464 1.92013 15.1745 1.96524 15.7266C2.00944 16.2674 2.09209 16.5717 2.20782 16.7988C2.46087 17.2953 2.86448 17.6989 3.36094 17.952C3.58806 18.0677 3.89242 18.1503 4.43321 18.1945C4.98531 18.2396 5.69573 18.2402 6.71953 18.2402H12C13.0238 18.2402 13.7342 18.2396 14.2863 18.1945C14.8271 18.1503 15.1315 18.0677 15.3586 17.952C15.8551 17.6989 16.2587 17.2953 16.5117 16.7988C16.6274 16.5717 16.7101 16.2674 16.7543 15.7266C16.7994 15.1745 16.8 14.464 16.8 13.4402V9.88008C16.8 9.7865 16.8002 9.73929 16.8023 9.71133C16.8287 9.37368 17.0072 9.15881 17.3344 9.07148C17.3615 9.06425 17.4328 9.05084 17.5746 9.02461C17.7938 8.98406 17.9038 8.96432 17.9391 8.96133C18.3868 8.92349 18.6719 9.16092 18.716 9.6082C18.7195 9.64366 18.7195 9.72621 18.7195 9.89063V13.4402C18.7195 14.4322 18.7209 15.2341 18.668 15.8824C18.6141 16.5421 18.4993 17.1278 18.2227 17.6707C17.7855 18.5284 17.0881 19.2258 16.2305 19.6629C15.6875 19.9395 15.1019 20.0543 14.4422 20.1082C13.7938 20.1612 12.992 20.1598 12 20.1598H6.71953C5.72753 20.1598 4.92572 20.1612 4.27735 20.1082C3.61768 20.0543 3.03199 19.9395 2.48907 19.6629C1.6314 19.2258 0.933999 18.5284 0.496879 17.6707C0.220244 17.1278 0.105463 16.5421 0.051566 15.8824C-0.00138999 15.2341 3.38416e-06 14.4322 3.50144e-06 13.4402V8.15977C3.38063e-06 7.16775 -0.00139024 6.36595 0.051566 5.71758C0.105464 5.05791 0.220243 4.47223 0.496879 3.9293C0.934 3.07163 1.6314 2.37423 2.48907 1.93711C3.03199 1.66047 3.61768 1.54569 4.27735 1.4918C4.92572 1.43884 5.72753 1.44023 6.71953 1.44023H10.268C10.4323 1.44023 10.5149 1.44032 10.5504 1.44375ZM16.5598 0C18.548 0 20.1598 1.61177 20.1598 3.6C20.1598 5.58823 18.548 7.2 16.5598 7.2C14.5715 7.2 12.9598 5.58822 12.9598 3.6C12.9598 1.61178 14.5715 1.85548e-06 16.5598 0Z" fill="var(--fill-0, black)"/>
</svg>
