<svg preserveAspectRatio="none" width="100%" height="100%" overflow="visible" style="display: block;" viewBox="0 0 20 20" fill="none" xmlns="http://www.w3.org/2000/svg">
<g id="NavBar-BackIcon">
<g id="NavBar-BackIcon-Glyph">
<path d="M5.21779 10.016C5.21779 9.90041 5.25458 9.80581 5.32816 9.73223L12.849 2.21144C12.933 2.12735 13.0276 2.0853 13.1328 2.0853C13.2379 2.07479 13.3272 2.10633 13.4008 2.1799L13.858 2.62138C13.9316 2.70547 13.9684 2.80532 13.9684 2.92095C13.9789 3.03657 13.9421 3.13643 13.858 3.22052L7.06252 10.016L13.858 16.8273C13.9421 16.9114 13.9789 17.006 13.9684 17.1111C13.9579 17.2162 13.9053 17.3161 13.8107 17.4107L13.5269 17.6945C13.3798 17.8417 13.2484 17.9152 13.1328 17.9152C13.0276 17.9257 12.9225 17.8784 12.8174 17.7733L5.34393 10.3156C5.25984 10.2315 5.21779 10.1317 5.21779 10.016Z" fill="var(--fill-0, black)" fill-opacity="0.6"/>
<path d="M13.1026 1.78743C13.294 1.76829 13.4716 1.82836 13.6094 1.96419L14.0664 2.4056L14.0752 2.41439L14.084 2.42415C14.201 2.55803 14.2599 2.71897 14.2656 2.89388H14.2676C14.2864 3.10058 14.2156 3.28769 14.0703 3.43294L7.48537 10.016L14.0703 16.6156L14.1621 16.7269C14.2418 16.8458 14.2821 16.986 14.2666 17.141C14.2476 17.3316 14.1527 17.4922 14.0225 17.6224L13.7393 17.9066C13.5835 18.0624 13.3878 18.2012 13.1612 18.2122L13.1621 18.2142C13.154 18.215 13.1458 18.2137 13.1377 18.2142C13.1361 18.2142 13.1345 18.2152 13.1328 18.2152V18.2142C12.9749 18.2222 12.836 18.1686 12.7197 18.0843L12.6055 17.9857L5.13186 10.5277C4.9933 10.3891 4.91799 10.2136 4.91799 10.016C4.91801 9.83048 4.97991 9.65618 5.11623 9.51986L12.6367 1.99935C12.7622 1.87393 12.92 1.79541 13.1026 1.78743Z" stroke="var(--stroke-0, black)" stroke-opacity="0.6" stroke-width="0.6"/>
</g>
</g>
</svg>
