<svg preserveAspectRatio="xMidYMid meet" width="24" height="24" overflow="visible" style="display: block;" viewBox="0 0 18 22" fill="none" xmlns="http://www.w3.org/2000/svg">
<path id="Union" d="M11.5996 1.6328e-09C13.8398 1.6328e-09 14.9608 -0.000427067 15.8164 0.435547C16.5689 0.819016 17.181 1.43109 17.5645 2.18359C18.0004 3.03924 18 4.16018 18 6.40039V15.5996L17.9932 17.084C17.9727 18.3839 17.8914 19.1747 17.5645 19.8164L17.4102 20.0918C17.0259 20.7183 16.4749 21.2289 15.8164 21.5645L15.6523 21.6406C14.816 21.9999 13.6999 22 11.5996 22H6.40039L4.91602 21.9932C3.72431 21.9744 2.96088 21.9041 2.34766 21.6406L2.18359 21.5645C1.52512 21.2289 0.974134 20.7183 0.589844 20.0918L0.435547 19.8164C-0.000427067 18.9608 1.6328e-09 17.8398 1.6328e-09 15.5996V6.40039C1.63259e-09 4.16018 -0.000427067 3.03924 0.435547 2.18359C0.819016 1.43109 1.43109 0.819016 2.18359 0.435547C2.82525 0.108606 3.61607 0.0272847 4.91602 0.00683594L6.40039 1.6328e-09H11.5996ZM6.40039 1.7998C5.25058 1.7998 4.49565 1.80151 3.91895 1.84863C3.36357 1.89404 3.13272 1.97291 3.00098 2.04004C2.58725 2.25092 2.25092 2.58725 2.04004 3.00098C1.97291 3.13272 1.89404 3.36357 1.84863 3.91895C1.80151 4.49565 1.7998 5.25058 1.7998 6.40039V15.5996C1.7998 16.7494 1.80151 17.5043 1.84863 18.0811C1.89404 18.6364 1.97291 18.8673 2.04004 18.999C2.25092 19.4127 2.58725 19.7491 3.00098 19.96C3.13272 20.0271 3.36357 20.106 3.91895 20.1514C4.49565 20.1985 5.25058 20.2002 6.40039 20.2002H11.5996C12.7494 20.2002 13.5043 20.1985 14.0811 20.1514C14.6364 20.106 14.8673 20.0271 14.999 19.96C15.4127 19.7491 15.7491 19.4127 15.96 18.999C16.0271 18.8673 16.106 18.6364 16.1514 18.0811C16.1985 17.5043 16.2002 16.7494 16.2002 15.5996V6.40039C16.2002 5.25058 16.1985 4.49565 16.1514 3.91895C16.106 3.36357 16.0271 3.13272 15.96 3.00098C15.7491 2.58725 15.4127 2.25092 14.999 2.04004C14.8673 1.97291 14.6364 1.89404 14.0811 1.84863C13.5043 1.80151 12.7494 1.7998 11.5996 1.7998H6.40039ZM7.10449 8.77832C7.27761 8.71318 7.53113 8.78512 8.03711 8.92969L13.6279 10.5273C14.4251 10.7551 14.8237 10.869 14.9375 11.0586C15.0358 11.2225 15.0442 11.4256 14.959 11.5967C14.8602 11.7945 14.471 11.9392 13.6943 12.2285L11.5527 13.0264C11.412 13.0788 11.3413 13.1049 11.2822 13.1465C11.2298 13.1835 11.1835 13.2298 11.1465 13.2822C11.1049 13.3413 11.0788 13.412 11.0264 13.5527L10.2285 15.6943C9.93916 16.471 9.79446 16.8602 9.59668 16.959C9.42562 17.0442 9.22249 17.0358 9.05859 16.9375C8.86904 16.8237 8.7551 16.4251 8.52734 15.6279L6.92969 10.0371C6.78512 9.53113 6.71318 9.27761 6.77832 9.10449C6.83514 8.95394 6.95394 8.83514 7.10449 8.77832ZM6.97949 6.48926C8.03458 6.48929 8.93483 7.14642 9.29688 8.07324C9.36082 8.23694 9.39316 8.31877 9.36328 8.41797C9.34052 8.49316 9.26216 8.57963 9.18945 8.60938C9.09347 8.64851 8.99016 8.61935 8.78418 8.56055L8.19141 8.39063C7.94926 8.32144 7.73009 8.25953 7.55078 8.22559C7.39745 8.1966 7.19919 8.17196 6.99512 8.22559L6.9082 8.25391L6.79688 8.30176C6.54783 8.42757 6.3533 8.64342 6.25391 8.90723C6.16565 9.14177 6.19247 9.37553 6.22559 9.55078C6.25953 9.73003 6.32245 9.94939 6.3916 10.1914L6.56055 10.7842C6.61944 10.9905 6.64964 11.0943 6.61035 11.1904C6.58057 11.2631 6.49406 11.3405 6.41895 11.3633C6.31973 11.3933 6.23794 11.3617 6.07422 11.2979C5.14677 10.9361 4.4893 10.035 4.48926 8.97949C4.48939 7.60458 5.60455 6.48926 6.97949 6.48926Z" fill="var(--fill-0, black)"/>
</svg>
