<svg preserveAspectRatio="xMidYMid meet" width="24" height="24" overflow="visible" style="display: block;" viewBox="0 0 24 24" fill="none" xmlns="http://www.w3.org/2000/svg">
<g id="&#232;&#129;&#138;&#229;&#164;&#169;&#233;&#161;&#181;&#229;&#183;&#165;&#229;&#133;&#183;&#230;&#160;&#143;">
<path id="Subtract (Stroke)" d="M22.1483 16.4202L22.2207 16.5216L22.3306 16.7157C22.5577 17.1809 22.5767 17.7257 22.374 18.2098C22.2468 18.5133 22.0017 18.7762 21.8054 19.0009C21.2448 19.6421 20.8765 20.0722 20.3475 20.4271C19.857 20.7563 19.2417 20.9783 18.6449 21.0964C18.0481 21.2145 17.3947 21.2436 16.8158 21.1261C16.2005 21.0011 15.8181 20.8068 15.2455 20.5219C13.0339 19.4214 10.9155 17.9456 8.99823 16.1043L8.61716 15.7311C6.38999 13.5039 4.66872 10.9872 3.47101 8.35777C3.26739 7.91074 3.12971 7.61236 3.02149 7.11188C2.88677 6.4888 2.92129 5.78722 3.059 5.14859C3.1967 4.51007 3.45423 3.85671 3.83366 3.34457C4.14388 2.92593 4.4878 2.63007 5.00057 2.1816C5.19108 2.01497 5.41415 1.80988 5.66466 1.68996L5.77918 1.63994C6.35624 1.41106 7.01449 1.49258 7.51935 1.86371L7.67928 1.99995C7.83198 2.14732 7.96292 2.32228 8.0801 2.47185L9.87951 4.76883C10.0734 5.0163 10.242 5.2304 10.3698 5.41448C10.5001 5.60205 10.6231 5.80645 10.7022 6.04434C10.7571 6.20954 10.8027 6.38182 10.8207 6.57613C10.8386 6.77067 10.8254 6.94912 10.8016 7.12175C10.7647 7.38948 10.6557 7.65229 10.5456 7.8885C10.4296 8.13738 10.2662 8.44961 10.0671 8.83165C9.9604 9.03634 9.89069 9.20972 9.85384 9.34764C9.83583 9.41509 9.82755 9.46665 9.82488 9.50297C9.82238 9.53734 9.82554 9.5523 9.82554 9.55233L9.82488 9.55167C9.83316 9.59256 9.87332 9.71132 9.98745 9.91827C10.0952 10.1137 10.246 10.347 10.4357 10.6074C10.8146 11.1275 11.3181 11.7163 11.8579 12.2705C12.3993 12.8263 12.958 13.3275 13.4428 13.6816C13.6858 13.8591 13.8933 13.9878 14.0582 14.068C14.2397 14.1563 14.2974 14.1506 14.2635 14.1509L14.3866 14.1318C14.5449 14.0933 14.8076 13.9911 15.1751 13.7856C15.5157 13.5951 15.8002 13.4364 16.0326 13.3216C16.2597 13.2094 16.5094 13.1023 16.777 13.0603C17.1777 12.9975 17.5039 13.0234 17.8893 13.1498C18.1333 13.2299 18.3413 13.355 18.5323 13.4888C18.7185 13.6191 18.9332 13.7903 19.18 13.9863L21.5191 15.845C21.7234 16.0074 21.9695 16.192 22.1483 16.4202ZM20.7503 17.4312C20.6896 17.3772 20.6031 17.3081 20.4515 17.1876L18.1131 15.3297C17.8498 15.1205 17.6821 14.9875 17.5484 14.894C17.4198 14.8039 17.3697 14.7852 17.3542 14.7801C17.2268 14.7383 17.1753 14.7337 17.0429 14.7544C17.0462 14.7539 17.0306 14.7569 16.9876 14.7729C16.9435 14.7893 16.8815 14.8159 16.7928 14.8597C16.6091 14.9505 16.3695 15.0835 16.0129 15.2829C15.5712 15.5299 15.027 15.7878 14.5018 15.8516L14.278 15.8661C13.9206 15.8689 13.5786 15.7423 13.3079 15.6107C13.0205 15.4709 12.7233 15.2804 12.4312 15.067C11.8457 14.6394 11.2139 14.068 10.6292 13.4677C10.0431 12.866 9.48423 12.2152 9.04891 11.6176C8.83139 11.319 8.63742 11.0235 8.48487 10.7469C8.33877 10.482 8.20319 10.1851 8.14394 9.8926L8.14328 9.89194C8.00926 9.22835 8.28452 8.54037 8.54608 8.03856C8.75279 7.642 8.8943 7.36989 8.99033 7.16387C9.09226 6.94517 9.10301 6.88172 9.10222 6.88744C9.11606 6.78706 9.11362 6.75066 9.11209 6.73409C9.11055 6.71746 9.1058 6.68122 9.07392 6.58535C9.0694 6.57186 9.05055 6.52253 8.96072 6.39317C8.86765 6.25915 8.73515 6.09032 8.52896 5.82715L6.72956 3.53017C6.62844 3.40111 6.57059 3.32709 6.52553 3.27481C6.51259 3.25979 6.5031 3.25007 6.49723 3.24387C6.47101 3.22704 6.43918 3.22405 6.41035 3.23597C6.4034 3.241 6.39247 3.24904 6.37744 3.26098C6.32349 3.3039 6.25307 3.36526 6.12997 3.47291C5.57944 3.9544 5.39086 4.12476 5.2125 4.36538C5.01438 4.63273 4.8374 5.04297 4.73665 5.50992C4.63594 5.97695 4.62752 6.42389 4.69782 6.74923C4.76303 7.05081 4.82937 7.19963 5.03282 7.6463C6.1449 10.0878 7.74785 12.4345 9.8308 14.5175L10.1869 14.867C11.9792 16.5882 13.9544 17.9638 16.0096 18.9864C16.5942 19.2772 16.7908 19.37 17.1574 19.4445C17.4575 19.5054 17.8733 19.4996 18.3118 19.4129C18.7504 19.3261 19.1376 19.1735 19.3919 19.0028C19.6952 18.7993 19.9094 18.5631 20.5134 17.8721C20.6408 17.7264 20.7135 17.6426 20.7635 17.5786C20.7778 17.5603 20.7868 17.5472 20.7924 17.5391C20.8006 17.5142 20.7983 17.4884 20.7859 17.4654C20.7788 17.4584 20.7679 17.4468 20.7503 17.4312Z" fill="var(--fill-0, black)"/>
</g>
</svg>
