<svg preserveAspectRatio="xMidYMid meet" width="40" height="17" overflow="visible" style="display: block;" viewBox="0 0 39.9996 16.9015" fill="none" xmlns="http://www.w3.org/2000/svg">
<g id=" ">
<path id="&#230;&#150;&#135;&#230;&#156;&#172; 1" d="M12.2398 1.54752e-07C12.384 1.5482e-07 12.4561 0.0004103 12.5054 0.0302736C12.5486 0.0564541 12.5812 0.0972658 12.5963 0.145508C12.6133 0.200551 12.5956 0.27049 12.5611 0.410156L12.0347 2.54102C12.0126 2.63045 12.0019 2.67556 11.9771 2.70898C11.9551 2.73855 11.9252 2.76205 11.8912 2.77637C11.8527 2.79258 11.8061 2.79199 11.7134 2.79199H6.87848C6.10619 2.79199 5.71946 2.79225 5.42438 2.94238C5.16477 3.07466 4.95314 3.28629 4.82087 3.5459C4.67059 3.84101 4.67048 4.22746 4.67048 5V6.79688C4.67048 6.91245 4.67053 6.97043 4.69294 7.01465C4.71278 7.05359 4.74481 7.08563 4.78376 7.10547C4.82798 7.12792 4.88592 7.12793 5.00153 7.12793H10.7496C10.8937 7.12793 10.9658 7.12835 11.0152 7.1582C11.0583 7.18439 11.091 7.22524 11.106 7.27344C11.123 7.32847 11.1054 7.39848 11.0709 7.53809L10.5445 9.66895C10.5223 9.75864 10.5109 9.80346 10.4859 9.83691C10.4639 9.86639 10.4348 9.89 10.4009 9.9043C10.3624 9.92052 10.3159 9.91992 10.2232 9.91992H5.00153C4.88601 9.91992 4.82796 9.91998 4.78376 9.94238C4.74481 9.96222 4.71278 9.99426 4.69294 10.0332C4.67044 10.0774 4.67048 10.1354 4.67048 10.251V16.5703C4.67048 16.686 4.67054 16.7439 4.64801 16.7881C4.62817 16.827 4.59614 16.8591 4.55719 16.8789C4.51298 16.9012 4.45492 16.9014 4.33942 16.9014H1.59137C1.47583 16.9014 1.41782 16.9013 1.3736 16.8789C1.33466 16.8591 1.30262 16.827 1.28278 16.7881C1.26028 16.7439 1.26032 16.6859 1.26032 16.5703V5.51855C1.26032 3.58728 1.26054 2.62155 1.6363 1.88379C1.96699 1.23476 2.49508 0.706673 3.14411 0.375977C3.88187 0.000217209 4.8476 1.56022e-07 6.77887 1.54752e-07H12.2398ZM17.7466 1.54752e-07C17.8623 1.60503e-07 17.9202 -2.07769e-05 17.9644 0.0224611C18.0034 0.0423029 18.0354 0.0743397 18.0552 0.113281C18.0776 0.157499 18.0777 0.215511 18.0777 0.331055V12.835C18.0777 13.6044 18.366 13.9373 18.3765 13.9492C18.6736 14.2773 19.3428 14.2803 19.3531 14.2803H19.731C19.9744 14.2803 20.0965 14.2805 20.1793 14.3311C20.2516 14.3754 20.3053 14.4451 20.3297 14.5264C20.3573 14.6193 20.3262 14.7373 20.2642 14.9727L19.8218 16.6543C19.7986 16.7426 19.7863 16.7865 19.7613 16.8193C19.7392 16.8483 19.7099 16.8708 19.6763 16.8848C19.6382 16.9006 19.5927 16.9014 19.5015 16.9014H18.9625C17.0191 16.9013 15.9401 15.9056 15.9302 15.8965C14.8587 14.9005 14.8493 13.0614 14.8492 13.0313V0.331055C14.8492 0.215599 14.8494 0.157487 14.8716 0.113281C14.8915 0.0743652 14.9236 0.0423054 14.9625 0.0224611C15.0067 -6.81334e-05 15.0646 1.89221e-07 15.1802 1.54752e-07H17.7466ZM25.1011 4.16406C25.2942 4.16406 25.3907 4.16463 25.4644 4.20215C25.5293 4.23522 25.5827 4.28764 25.6158 4.35254C25.6533 4.42627 25.6529 4.52294 25.6529 4.71582V16.3496C25.6529 16.5425 25.6532 16.6392 25.6158 16.7129C25.5827 16.7778 25.5293 16.8312 25.4644 16.8643C25.3907 16.9016 25.294 16.9014 25.1011 16.9014H23.0025C22.8097 16.9014 22.7129 16.9018 22.6392 16.8643C22.5743 16.8312 22.5219 16.7778 22.4888 16.7129C22.4513 16.6391 22.4507 16.5427 22.4507 16.3496V4.71582C22.4507 4.52291 22.4513 4.42627 22.4888 4.35254C22.5219 4.28779 22.5745 4.23519 22.6392 4.20215C22.713 4.16458 22.8096 4.16406 23.0025 4.16406H25.1011ZM30.857 4.16406C30.9244 4.16406 30.9585 4.16426 30.9888 4.17383C31.0156 4.1823 31.0408 4.19647 31.0621 4.21484C31.086 4.23563 31.104 4.2642 31.1392 4.32129L32.983 7.30762C33.0808 7.46598 33.1302 7.54571 33.192 7.57129C33.2457 7.59342 33.3063 7.59123 33.359 7.56641C33.4194 7.53787 33.4643 7.4567 33.5543 7.29395L35.191 4.33496C35.2252 4.273 35.2427 4.24233 35.2672 4.21973C35.2888 4.19969 35.3143 4.18408 35.3424 4.1748C35.3739 4.16438 35.4094 4.16406 35.48 4.16406H38.065C38.2617 4.16406 38.3604 4.16409 38.4156 4.20508C38.4636 4.24096 38.4942 4.29666 38.4986 4.35645C38.5034 4.42497 38.4501 4.50814 38.3443 4.67383L34.9029 10.0635C34.8623 10.127 34.8416 10.1592 34.8336 10.1934C34.8265 10.2235 34.826 10.2549 34.8326 10.2852C34.8401 10.3195 34.8604 10.3518 34.9 10.416L38.5924 16.3965C38.6941 16.5613 38.7446 16.6439 38.7388 16.7119C38.7338 16.7711 38.7035 16.825 38.6558 16.8604C38.601 16.901 38.504 16.9014 38.3101 16.9014H35.7291C35.6622 16.9014 35.6284 16.9011 35.5982 16.8916C35.5717 16.8832 35.5471 16.8697 35.5259 16.8516C35.5019 16.8309 35.4842 16.802 35.4488 16.7451L33.3433 13.3613C33.2458 13.2045 33.1968 13.1261 33.1353 13.1006C33.0816 13.0784 33.0209 13.0798 32.9683 13.1045C32.908 13.1328 32.8629 13.2136 32.773 13.375L30.9019 16.7314C30.8675 16.7932 30.8502 16.8242 30.8257 16.8467C30.8041 16.8665 30.7784 16.8814 30.7506 16.8906C30.719 16.901 30.6836 16.9014 30.6129 16.9014H28.0172C27.8233 16.9014 27.7263 16.901 27.6715 16.8604C27.6238 16.825 27.5934 16.7711 27.5884 16.7119C27.5828 16.6439 27.6339 16.5613 27.7359 16.3965L31.3765 10.5117C31.4156 10.4486 31.4353 10.4166 31.4429 10.3828C31.4497 10.3528 31.4497 10.321 31.4429 10.291C31.4352 10.2573 31.4154 10.2259 31.3765 10.1631L27.9713 4.66992C27.8691 4.50508 27.8174 4.42252 27.8228 4.35449C27.8277 4.29525 27.8581 4.24054 27.9058 4.20508C27.9607 4.1644 28.0582 4.16406 28.2525 4.16406H30.857ZM25.1275 1.54752e-07C25.3204 1.60702e-07 25.4171 -0.000384165 25.4908 0.0371095C25.5557 0.0701792 25.6081 0.123574 25.6412 0.188477C25.6787 0.262253 25.6793 0.35864 25.6793 0.551758V1.87305C25.6793 2.06614 25.6788 2.16256 25.6412 2.23633C25.6081 2.30115 25.5556 2.35365 25.4908 2.38672C25.417 2.4243 25.3205 2.4248 25.1275 2.4248H22.9507C22.7577 2.4248 22.6612 2.4243 22.5875 2.38672C22.5226 2.35366 22.4701 2.30116 22.4371 2.23633C22.3995 2.16256 22.399 2.06614 22.399 1.87305V0.551758C22.399 0.358619 22.3995 0.262256 22.4371 0.188477C22.4701 0.123574 22.5226 0.0701792 22.5875 0.0371095C22.6612 -0.00036398 22.7579 1.58039e-07 22.9507 1.54752e-07H25.1275Z" fill="var(--fill-0, black)"/>
</g>
</svg>
