<svg width="21" height="21" viewBox="0 0 21 21" fill="none" xmlns="http://www.w3.org/2000/svg">
<path d="M11.4813 4.00391C11.4561 4.00751 11.4342 4.01105 11.4091 4.01465C11.3874 4.01826 11.365 4.025 11.3397 4.03223L11.2753 4.05371L11.2098 4.08691C11.1884 4.09768 11.1698 4.1087 11.1483 4.12305C11.1305 4.13382 11.1124 4.14783 11.0946 4.16211C11.0766 4.18009 11.0589 4.19494 11.0409 4.21289C11.0228 4.22734 11.0075 4.24562 10.993 4.26367C10.9787 4.28161 10.9644 4.29977 10.9501 4.32129C10.9392 4.33933 10.9248 4.36118 10.9139 4.38281C10.9031 4.40083 10.8928 4.42275 10.8856 4.44434C10.8748 4.46955 10.8674 4.49107 10.8602 4.5127C10.853 4.53433 10.8489 4.55941 10.8417 4.58105C10.8381 4.60259 10.8345 4.62784 10.8309 4.64941C10.8309 4.67457 10.8271 4.69656 10.827 4.72168C10.827 4.74685 10.8309 4.76881 10.8309 4.79395C10.8345 4.81561 10.8381 4.84161 10.8417 4.86328C10.8488 4.88488 10.853 4.91008 10.8602 4.93164C10.8674 4.95323 10.8748 4.97481 10.8856 5C10.8928 5.02164 10.9031 5.04348 10.9139 5.06152C10.9248 5.08319 10.9392 5.10499 10.9501 5.12305C10.9644 5.14459 10.9787 5.1627 10.993 5.18066C11.0075 5.19872 11.0228 5.217 11.0409 5.23145L15.5868 9.77734L3.96863 9.77734C3.94345 9.77734 3.92152 9.77768 3.89636 9.78125C3.8747 9.78486 3.84869 9.78838 3.82703 9.79199C3.80545 9.79563 3.7802 9.80239 3.75867 9.80957C3.73701 9.81679 3.71558 9.82481 3.69031 9.83203C3.66867 9.84285 3.64682 9.85344 3.62878 9.86426C3.60714 9.87508 3.58529 9.88596 3.56726 9.90039C3.54568 9.91121 3.52765 9.92603 3.50964 9.94043C3.49169 9.95836 3.47324 9.97229 3.45886 9.99023C3.44081 10.0047 3.42614 10.023 3.40808 10.041C3.39374 10.0589 3.3798 10.0772 3.36902 10.0986C3.35461 10.1166 3.3437 10.1385 3.33289 10.1602C3.32208 10.1782 3.31147 10.2001 3.30066 10.2217C3.29345 10.2469 3.28541 10.2684 3.2782 10.29C3.27103 10.3116 3.26426 10.3368 3.26062 10.3584C3.25701 10.3801 3.25349 10.4061 3.24988 10.4277C3.2463 10.4529 3.24597 10.4748 3.24597 10.5C3.24597 10.5251 3.24628 10.5471 3.24988 10.5723C3.25347 10.5938 3.25703 10.6191 3.26062 10.6406C3.26422 10.6622 3.27102 10.6874 3.2782 10.709C3.2854 10.7306 3.29346 10.7522 3.30066 10.7773C3.31147 10.799 3.32208 10.8208 3.33289 10.8389C3.34372 10.8605 3.35457 10.8823 3.36902 10.9004C3.37977 10.9219 3.39374 10.9401 3.40808 10.958L3.50964 11.0596C3.52768 11.074 3.54562 11.0888 3.56726 11.0996C3.58523 11.114 3.60724 11.124 3.62878 11.1348C3.64684 11.1456 3.66864 11.1571 3.69031 11.168C3.71547 11.1752 3.73709 11.1823 3.75867 11.1895C3.78018 11.1966 3.80546 11.2034 3.82703 11.207C3.84869 11.2106 3.8747 11.2151 3.89636 11.2187C3.92148 11.2223 3.94347 11.2217 3.96863 11.2217L15.5868 11.2217L11.0409 15.7686C11.0228 15.783 11.0085 15.8013 10.994 15.8193C10.9796 15.8373 10.9645 15.8553 10.9501 15.877C10.9393 15.8949 10.9247 15.9169 10.9139 15.9385C10.9033 15.9563 10.8928 15.9777 10.8856 15.999C10.8748 16.0243 10.8675 16.0467 10.8602 16.0684C10.8531 16.09 10.8489 16.1151 10.8417 16.1367C10.8381 16.1583 10.8345 16.1835 10.8309 16.2051C10.8309 16.2303 10.828 16.2521 10.828 16.2773C10.828 16.3026 10.8309 16.3244 10.8309 16.3496C10.8345 16.3711 10.8381 16.3964 10.8417 16.418C10.8489 16.4396 10.853 16.4656 10.8602 16.4873C10.8674 16.5089 10.8748 16.5305 10.8856 16.5557C10.8928 16.5773 10.9031 16.5992 10.9139 16.6172C10.9248 16.6388 10.9392 16.6607 10.9501 16.6787C10.9645 16.7003 10.9796 16.7183 10.994 16.7363C11.0084 16.7543 11.0229 16.7727 11.0409 16.7871C11.0587 16.8049 11.0767 16.8191 11.0946 16.8369C11.1127 16.8514 11.1312 16.8661 11.1493 16.877C11.1709 16.8913 11.1892 16.9023 11.2108 16.9131L11.2753 16.9453L11.3407 16.9668C11.3659 16.974 11.3874 16.9817 11.4091 16.9854C11.4343 16.989 11.4561 16.9925 11.4813 16.9961C11.5029 16.9997 11.5281 17 11.5497 17C11.5749 17 11.6003 16.9997 11.6219 16.9961C11.6472 16.9925 11.669 16.989 11.6942 16.9854C11.7158 16.9818 11.7374 16.974 11.7626 16.9668L11.828 16.9453L11.8925 16.9131C11.914 16.9023 11.9324 16.8913 11.954 16.877C11.972 16.8661 11.9906 16.8514 12.0087 16.8369C12.0265 16.8191 12.0445 16.8049 12.0624 16.7871L17.3309 11.5176C17.4681 11.3804 17.5735 11.2216 17.6493 11.041C17.7178 10.8679 17.7537 10.6875 17.7538 10.5C17.7538 10.3122 17.7179 10.1313 17.6493 9.95801C17.5735 9.77745 17.4682 9.61867 17.3309 9.48145L12.0624 4.21289C12.0444 4.19487 12.0267 4.18011 12.0087 4.16211C11.9907 4.1477 11.972 4.13387 11.954 4.12305C11.9323 4.1086 11.9141 4.09775 11.8925 4.08691L11.828 4.05371L11.7626 4.03223C11.7374 4.02504 11.7158 4.01827 11.6942 4.01465C11.669 4.01105 11.6471 4.00751 11.6219 4.00391C11.6003 4.0003 11.5749 4 11.5497 4C11.5281 4 11.5029 4.00034 11.4813 4.00391Z" fill="#3482FF"/>
</svg>
