<svg width="30" height="30" viewBox="0 0 30 30" fill="none" xmlns="http://www.w3.org/2000/svg">
<path d="M20.7183 18.4595C20.1478 18.4595 19.6837 17.995 19.6837 17.4244C19.6837 16.8539 20.1478 16.3898 20.7183 16.3898C21.289 16.3898 21.7531 16.8538 21.7531 17.4244C21.7531 17.9951 21.289 18.4595 20.7183 18.4595ZM9.28168 18.4595C8.71115 18.4595 8.24705 17.995 8.24705 17.4244C8.24705 16.8539 8.71105 16.3898 9.28168 16.3898C9.85222 16.3898 10.3163 16.8538 10.3163 17.4244C10.3163 17.9951 9.85231 18.4595 9.28168 18.4595ZM21.0895 12.2267L23.1574 8.64511C23.2143 8.54627 23.2297 8.42888 23.2002 8.3187C23.1707 8.20853 23.0986 8.11457 22.9999 8.05743C22.9011 8.00053 22.7837 7.98516 22.6735 8.01468C22.5634 8.0442 22.4694 8.11621 22.4122 8.21491L20.3185 11.8417C18.7172 11.1111 16.9189 10.704 15 10.704C13.0811 10.704 11.2829 11.1111 9.68167 11.8417L7.58778 8.21491C7.53063 8.11621 7.43667 8.0442 7.3265 8.01468C7.21633 7.98516 7.09896 8.00053 7.00011 8.05743C6.90133 8.11451 6.82926 8.20848 6.79973 8.31867C6.7702 8.42887 6.78563 8.54628 6.84263 8.64511L8.91057 12.2267C5.35961 14.158 2.93098 17.7528 2.57568 22H27.4243C27.0688 17.7529 24.6401 14.158 21.0895 12.2266" fill="black"/>
</svg>
