<svg width="21" height="21" viewBox="0 0 21 21" fill="none" xmlns="http://www.w3.org/2000/svg">
<path d="M4.2002 17.1768C3.8136 17.1768 3.5 17.4904 3.5 17.877C3.50011 18.2635 3.81366 18.5771 4.2002 18.5771H16.7998C17.1863 18.5771 17.4999 18.2635 17.5 17.877C17.5 17.4904 17.1864 17.1768 16.7998 17.1768H4.2002ZM10.4316 2.42676C10.4112 2.43017 10.3867 2.43311 10.3662 2.43652C10.3458 2.43998 10.3221 2.44731 10.3018 2.4541C10.2812 2.46094 10.2603 2.46777 10.2363 2.47461C10.2161 2.48474 10.1956 2.49475 10.1787 2.50488C10.1582 2.51513 10.1372 2.52542 10.1201 2.53906C10.0996 2.54933 10.0825 2.56347 10.0654 2.57715L9.96973 2.67285C9.95604 2.68995 9.9419 2.70702 9.93164 2.72754C9.918 2.74463 9.9077 2.76565 9.89746 2.78613C9.88732 2.80308 9.87733 2.82347 9.86719 2.84375C9.86034 2.8677 9.85352 2.88865 9.84668 2.90918C9.83988 2.92957 9.83255 2.9532 9.8291 2.97363C9.82569 2.99412 9.82275 3.01856 9.81934 3.03906C9.81592 3.06296 9.81543 3.08354 9.81543 3.10742V14.123L5.50488 9.8125C5.49123 9.79551 5.47406 9.7812 5.45703 9.76758C5.44008 9.75402 5.42269 9.74012 5.40234 9.72656C5.38535 9.71634 5.36505 9.70256 5.34473 9.69238C5.32762 9.68213 5.30665 9.67188 5.28613 9.66504C5.26228 9.65483 5.24117 9.64842 5.2207 9.6416C5.20028 9.63485 5.17663 9.63081 5.15625 9.62402C5.13573 9.62061 5.11133 9.61768 5.09082 9.61426C5.06701 9.61422 5.04631 9.61035 5.02246 9.61035C4.9986 9.61038 4.97798 9.61426 4.9541 9.61426C4.9336 9.61767 4.90915 9.62061 4.88867 9.62402C4.86825 9.63077 4.84461 9.63482 4.82422 9.6416C4.80371 9.64844 4.78272 9.65478 4.75879 9.66504C4.73848 9.67183 4.71815 9.68223 4.70117 9.69238C4.68071 9.70262 4.65965 9.71631 4.64258 9.72656C4.62217 9.74018 4.60491 9.75397 4.58789 9.76758C4.57082 9.78124 4.55371 9.79544 4.54004 9.8125C4.52294 9.8296 4.50929 9.84716 4.49219 9.86426C4.47855 9.8813 4.46433 9.89799 4.4541 9.91504C4.44042 9.93556 4.43019 9.95311 4.41992 9.97363L4.38965 10.0352L4.36914 10.0967C4.3623 10.1206 4.35499 10.1416 4.35156 10.1621C4.34816 10.1859 4.3452 10.2066 4.3418 10.2305C4.33843 10.2509 4.33789 10.2745 4.33789 10.2949C4.33789 10.3188 4.33843 10.3428 4.3418 10.3633C4.34522 10.3872 4.34814 10.4087 4.35156 10.4326C4.35501 10.453 4.36235 10.4733 4.36914 10.4971L4.38965 10.5586L4.41992 10.6201C4.43017 10.6406 4.44044 10.6582 4.4541 10.6787C4.46436 10.6958 4.47851 10.7134 4.49219 10.7305C4.50913 10.7475 4.52306 10.7643 4.54004 10.7812L9.53516 15.7764C9.66506 15.9062 9.81547 16.0053 9.98633 16.0771C10.1506 16.1422 10.3221 16.1767 10.5 16.1768C10.678 16.1768 10.8494 16.1422 11.0137 16.0771C11.1848 16.0053 11.3358 15.9064 11.4658 15.7764L16.4609 10.7812H16.46L15.4951 9.8125L11.1846 14.123V3.10742C11.1846 3.08354 11.1851 3.06296 11.1816 3.03906C11.1782 3.01854 11.1743 2.99415 11.1709 2.97363C11.1675 2.95327 11.1611 2.92951 11.1543 2.90918C11.1475 2.88865 11.1406 2.8677 11.1338 2.84375C11.1236 2.82332 11.1128 2.80318 11.1025 2.78613C11.0923 2.7656 11.082 2.74465 11.0684 2.72754C11.0581 2.70715 11.0449 2.68986 11.0312 2.67285C11.0143 2.65587 11.0003 2.63863 10.9834 2.625C10.9697 2.6079 10.9517 2.59425 10.9346 2.57715C10.9175 2.56351 10.9003 2.54929 10.8799 2.53906C10.8629 2.52555 10.8426 2.51506 10.8223 2.50488C10.8052 2.49463 10.7842 2.48486 10.7637 2.47461C10.74 2.46783 10.7195 2.46088 10.6992 2.4541C10.6787 2.44727 10.6543 2.43995 10.6338 2.43652C10.6133 2.43311 10.5889 2.43018 10.5684 2.42676C10.5445 2.42338 10.5239 2.42285 10.5 2.42285C10.4762 2.42285 10.4555 2.42335 10.4316 2.42676ZM15.9092 9.61328C15.8887 9.6167 15.8643 9.6206 15.8438 9.62402C15.8234 9.63075 15.7996 9.63391 15.7793 9.64062C15.7588 9.64746 15.7378 9.65478 15.7139 9.66504C15.6934 9.67189 15.6724 9.68213 15.6553 9.69238C15.6349 9.7026 15.6146 9.71637 15.5977 9.72656C15.5772 9.74018 15.56 9.75396 15.543 9.76758C15.5259 9.78125 15.5088 9.79541 15.4951 9.8125L16.4609 10.7812C16.4779 10.7643 16.4908 10.7465 16.5078 10.7295C16.5214 10.7125 16.5356 10.6958 16.5459 10.6787C16.5596 10.6582 16.5698 10.6406 16.5801 10.6201L16.6113 10.5586L16.6318 10.4971C16.6387 10.4731 16.645 10.4522 16.6484 10.4316C16.6518 10.4078 16.6558 10.3872 16.6592 10.3633C16.6626 10.3428 16.6621 10.3188 16.6621 10.2949C16.6621 10.2744 16.6626 10.25 16.6592 10.2295C16.6558 10.2057 16.6518 10.185 16.6484 10.1611C16.645 10.1408 16.6386 10.1204 16.6318 10.0967L16.6113 10.0352L16.5801 9.97363C16.5698 9.95314 16.5596 9.93553 16.5459 9.91504C16.5356 9.89794 16.5215 9.88038 16.5078 9.86328C16.4909 9.84629 16.477 9.82949 16.46 9.8125C16.4463 9.7954 16.4292 9.78126 16.4121 9.76758C16.3951 9.75395 16.3779 9.74019 16.3574 9.72656C16.3404 9.71637 16.3201 9.70259 16.2998 9.69238C16.2827 9.68214 16.2617 9.67188 16.2412 9.66504C16.2173 9.65479 16.1963 9.64746 16.1758 9.64062C16.1554 9.63392 16.1316 9.63075 16.1113 9.62402C16.0908 9.6206 16.0664 9.6167 16.0459 9.61328C16.022 9.61327 16.0014 9.61035 15.9775 9.61035C15.9537 9.61036 15.9331 9.61327 15.9092 9.61328Z" fill="#3482FF"/>
</svg>
