<svg width="30" height="30" viewBox="0 0 30 30" fill="none" xmlns="http://www.w3.org/2000/svg">
<path d="M22.0977 15.8132C22.1342 19.749 25.5504 21.0588 25.5882 21.0755C25.5593 21.1678 25.0423 22.9419 23.7885 24.7744C22.7045 26.3587 21.5794 27.9372 19.8071 27.9699C18.0659 28.002 17.5058 26.9373 15.5149 26.9373C13.5246 26.9373 12.9024 27.9372 11.254 28.002C9.54333 28.0668 8.24065 26.2888 7.14775 24.7103C4.91429 21.4815 3.20752 15.5862 5.49929 11.6069C6.63777 9.63067 8.67245 8.37936 10.8808 8.34727C12.5606 8.31525 14.1461 9.47739 15.173 9.47739C16.1993 9.47739 18.1261 8.07983 20.1517 8.28506C20.9995 8.32038 23.3799 8.62752 24.9083 10.8648C24.7851 10.9411 22.0681 12.5228 22.0977 15.8133M18.825 6.14889C19.7333 5.04953 20.3445 3.5192 20.1777 1.9964C18.8686 2.04901 17.2856 2.86877 16.3466 3.96746C15.5051 4.9405 14.7681 6.4978 14.967 7.99041C16.4262 8.10332 17.9167 7.2489 18.825 6.14889Z" fill="black"/>
</svg>
