<svg width="30" height="30" viewBox="0 0 30 30" fill="none" xmlns="http://www.w3.org/2000/svg">
<g clip-path="url(#clip0_3229_6679)">
<path d="M15.5361 2.20587C15.3709 2.20587 15.2004 2.2144 15.0256 2.22825C10.5202 2.58318 11.7151 7.35175 11.6468 8.94091C11.5648 10.1059 11.3271 11.0236 10.5266 12.1608C9.58338 13.281 8.2596 15.0919 7.63182 16.9795C7.33552 17.8663 7.19483 18.7744 7.32593 19.6324C7.27693 19.6716 7.23663 19.7206 7.20762 19.7762C6.9305 20.0619 6.72906 20.4168 6.50203 20.6705C6.28993 20.8826 5.9851 20.9551 5.65256 21.0968C5.31895 21.2418 4.95124 21.3835 4.73167 21.8227C4.63575 22.023 4.58672 22.2415 4.59098 22.4632C4.59098 22.6753 4.61976 22.8906 4.6496 23.0345C4.71142 23.4598 4.77324 23.8115 4.69117 24.0684C4.42684 24.7932 4.3938 25.2898 4.57926 25.6512C4.76471 26.0071 5.14948 26.151 5.58008 26.2917C6.44448 26.5049 7.61583 26.4356 8.53779 26.9302C9.52475 27.4279 10.5266 27.6453 11.326 27.4311C11.8867 27.3085 12.3599 26.9376 12.6136 26.4239C13.2392 26.4207 13.9245 26.1372 15.0224 26.0679C15.7674 26.0061 16.7 26.3525 17.7701 26.28C17.7967 26.4239 17.8372 26.4921 17.8916 26.636L17.8948 26.6392C18.3115 27.4684 19.0811 27.8457 19.9028 27.7807C20.7246 27.7167 21.5997 27.2094 22.3084 26.3887C22.981 25.5733 24.1022 25.2333 24.843 24.7868C25.2139 24.5747 25.5134 24.2869 25.5347 23.8776C25.5592 23.4513 25.3226 23.0121 24.7737 22.4099V22.3065L24.7705 22.3033C24.5893 22.0902 24.5041 21.7331 24.4103 21.3164C24.3197 20.889 24.2163 20.4786 23.8859 20.2015H23.8827C23.8198 20.144 23.7516 20.1301 23.6823 20.0576C23.6227 20.016 23.5524 19.9923 23.4798 19.9894C23.9392 18.6273 23.7612 17.2715 23.2954 16.0522C22.7273 14.5494 21.7339 13.2405 20.9772 12.3399C20.1288 11.2687 19.2974 10.254 19.3134 8.74906C19.3422 6.45538 19.566 2.21227 15.5361 2.20587ZM16.0999 5.83506H16.1138C16.3408 5.83506 16.5358 5.90114 16.7362 6.04609C16.9398 6.18998 17.088 6.39995 17.2041 6.61419C17.316 6.89024 17.3725 7.10341 17.3811 7.38585C17.3811 7.36454 17.3875 7.34322 17.3875 7.32297V7.43382C17.3851 7.42656 17.3837 7.41904 17.3832 7.41143L17.3789 7.38585C17.3768 7.64488 17.3224 7.90081 17.2191 8.13834C17.1693 8.27197 17.0919 8.39363 16.992 8.49539C16.9618 8.47834 16.9305 8.46338 16.8982 8.45063C16.7863 8.40266 16.6861 8.38241 16.5945 8.30887C16.5189 8.27867 16.4408 8.25513 16.3611 8.23853C16.4133 8.17564 16.5156 8.09677 16.555 8.02749C16.6115 7.89106 16.6424 7.74611 16.6488 7.59902V7.57877C16.6512 7.43402 16.6293 7.28989 16.5838 7.15243C16.5358 7.00855 16.4762 6.9382 16.3888 6.79644C16.2992 6.7261 16.2108 6.65575 16.1042 6.65575H16.0871C15.988 6.65575 15.8995 6.68773 15.8079 6.79644C15.7067 6.89516 15.6316 7.01749 15.5894 7.15243C15.5328 7.28786 15.5003 7.43215 15.4935 7.57877V7.59902C15.4956 7.69388 15.502 7.78981 15.5148 7.8836C15.3091 7.81219 15.0479 7.73971 14.8678 7.6683C14.8571 7.59806 14.8507 7.52722 14.8486 7.4562V7.43488C14.8401 7.15316 14.8947 6.87311 15.0085 6.61525C15.0959 6.38183 15.2558 6.18252 15.4668 6.04716C15.6491 5.90945 15.8714 5.83498 16.0999 5.83506ZM12.9429 5.89794H12.9813C13.1326 5.89794 13.269 5.9491 13.4065 6.04183C13.5622 6.17932 13.6879 6.34879 13.7732 6.53744C13.8691 6.74955 13.9235 6.96485 13.9363 7.24836V7.25262C13.9437 7.39545 13.9427 7.46686 13.9341 7.53614V7.6214C13.9022 7.62886 13.8744 7.64059 13.8457 7.64698C13.6837 7.70561 13.5536 7.79087 13.4268 7.86015C13.4396 7.76529 13.4406 7.66937 13.43 7.57557V7.55959C13.4172 7.41783 13.3884 7.34748 13.3426 7.20466C13.3094 7.09603 13.2484 6.99795 13.1657 6.92008C13.1394 6.8962 13.1086 6.87785 13.0751 6.86613C13.0416 6.85441 13.006 6.84956 12.9706 6.85187H12.9482C12.8726 6.85826 12.8097 6.89557 12.75 6.99256C12.682 7.07508 12.6378 7.17457 12.6221 7.28034C12.5931 7.39556 12.5848 7.51501 12.5976 7.63313V7.64805C12.6104 7.79194 12.637 7.86228 12.6839 8.00404C12.7319 8.14686 12.7873 8.21721 12.8598 8.28969C12.8715 8.29928 12.8821 8.30887 12.896 8.31527C12.8214 8.37602 12.7713 8.38987 12.7084 8.46022C12.6685 8.49545 12.6206 8.52033 12.5688 8.5327C12.458 8.39928 12.3599 8.25584 12.2757 8.10423C12.1749 7.88025 12.1188 7.63877 12.1105 7.39331C12.0928 7.15271 12.1218 6.91096 12.1957 6.68133C12.2545 6.47191 12.3573 6.27749 12.4974 6.11111C12.6338 5.96935 12.7745 5.89794 12.9429 5.89794ZM14.4042 7.71626C14.757 7.71626 15.1844 7.78554 15.6992 8.14153C16.0115 8.3547 16.2566 8.42824 16.8215 8.64035H16.8247C17.0965 8.7853 17.2564 8.92386 17.3342 9.06562V8.92599C17.3724 9.00349 17.3937 9.08825 17.3967 9.17463C17.3996 9.261 17.3841 9.34701 17.3512 9.42694C17.2201 9.75841 16.8012 10.1133 16.2172 10.3254V10.3276C15.9315 10.4715 15.6832 10.6825 15.3911 10.8232C15.097 10.9671 14.7644 11.1344 14.3125 11.1078C14.1502 11.1162 13.9878 11.0919 13.835 11.0364C13.717 10.9721 13.6024 10.9017 13.4918 10.8253C13.284 10.6814 13.1049 10.4715 12.8395 10.3297V10.3244H12.8342C12.4079 10.0622 12.1776 9.77866 12.103 9.56656C12.0295 9.28092 12.0977 9.06668 12.3087 8.92706C12.5475 8.78317 12.7137 8.63822 12.8235 8.56894C12.9344 8.49006 12.9759 8.46022 13.0111 8.42931H13.0132V8.42611C13.1934 8.21081 13.478 7.92623 13.9075 7.78554C14.0556 7.74717 14.2208 7.71626 14.4042 7.71626ZM17.3875 10.0004C17.7701 11.5107 18.6633 13.7042 19.2378 14.7679C19.5426 15.337 20.149 16.5361 20.4123 17.991C20.5786 17.9856 20.763 18.0101 20.9591 18.0592C21.6476 16.2782 20.3771 14.3639 19.7984 13.8321C19.5628 13.6178 19.5511 13.475 19.6673 13.475C20.2951 14.0442 21.1222 15.1505 21.4217 16.4135C21.5592 16.9837 21.5911 17.5902 21.444 18.1935C21.5155 18.2233 21.5879 18.2585 21.6625 18.2649C22.7625 18.834 23.1686 19.2646 22.9735 19.9031V19.8572C22.9085 19.854 22.8456 19.8572 22.7806 19.8572H22.7646C22.9256 19.3595 22.5706 18.9779 21.6295 18.5527C20.6543 18.1263 19.8751 18.1945 19.7419 19.0483C19.7344 19.0941 19.7291 19.1186 19.7238 19.1922C19.6513 19.2167 19.5756 19.2487 19.501 19.2604C19.0427 19.546 18.7954 19.9734 18.6558 20.5255C18.5172 21.0936 18.4746 21.7576 18.4373 22.5176V22.5208C18.4149 22.8768 18.255 23.414 18.0973 23.9607C16.4985 25.1033 14.2816 25.6 12.3961 24.3167C12.2779 24.11 12.1339 23.9191 11.9677 23.7486C11.8883 23.616 11.7895 23.496 11.6746 23.3926C11.8685 23.3926 12.0348 23.3617 12.1702 23.3212C12.3234 23.2501 12.4433 23.1226 12.5048 22.9652C12.62 22.6807 12.5048 22.2223 12.1371 21.7257C11.7694 21.2279 11.1448 20.6652 10.2314 20.1045C9.55993 19.6792 9.18049 19.1772 9.00569 18.6166C8.82983 18.0474 8.85328 17.4602 8.9897 16.8633C9.25083 15.7229 9.92018 14.6144 10.3476 13.9184C10.4616 13.8491 10.387 14.0623 9.91272 14.9565C9.49065 15.757 8.6966 17.6179 9.78269 19.0643C9.8237 18.009 10.0574 16.9701 10.4723 15.9989C11.0734 14.6368 12.33 12.2642 12.4292 10.3841C12.4803 10.4224 12.6605 10.5279 12.7372 10.5994C12.9695 10.7411 13.1422 10.9543 13.366 11.095C13.5909 11.3092 13.8744 11.452 14.2997 11.452C14.3413 11.4552 14.3797 11.4584 14.418 11.4584C14.8561 11.4584 15.195 11.3156 15.4796 11.1728C15.7887 11.03 16.0349 10.8168 16.2683 10.7464H16.2737C16.7714 10.6026 17.1647 10.318 17.3875 10.0004ZM19.7174 19.5482C19.7568 20.1887 20.083 20.8751 20.6575 21.0158C21.2842 21.1586 22.1859 20.6609 22.5664 20.2004L22.7913 20.1909C23.127 20.1823 23.4063 20.2015 23.694 20.4754L23.6972 20.4786C23.9189 20.6907 24.0223 21.0446 24.114 21.4123C24.2046 21.8397 24.2781 22.2437 24.5499 22.5485C25.0679 23.1102 25.2374 23.5141 25.2278 23.7635L25.231 23.7572V23.7763L25.2278 23.7635C25.2118 24.0428 25.0306 24.1856 24.697 24.3977C24.0255 24.8251 22.836 25.1566 22.0782 26.0711C21.4195 26.8566 20.617 27.2851 19.9082 27.3405C19.2004 27.397 18.5897 27.1273 18.2305 26.3834L18.2252 26.3802C18.0014 25.9528 18.0973 25.2877 18.2849 24.5789C18.4725 23.8669 18.7411 23.1454 18.7784 22.556C18.8178 21.7949 18.8594 21.1331 18.9862 20.6225C19.1141 20.1269 19.3145 19.773 19.6694 19.5737L19.7174 19.5503V19.5482ZM8.19032 19.6004H8.20098C8.25747 19.6004 8.31289 19.6057 8.36832 19.6153C8.76907 19.6739 9.1208 19.9702 9.45867 20.4168L10.4286 22.1904L10.4318 22.1936C10.6908 22.7617 11.2354 23.3276 11.6991 23.9394C12.1616 24.5768 12.5198 25.1449 12.4761 25.6128V25.6192C12.4153 26.4122 11.9655 26.8428 11.277 26.9984C10.5895 27.1423 9.65692 27.0005 8.72431 26.5038C7.69258 25.9325 6.46686 26.0039 5.6792 25.8622C5.28591 25.7918 5.02798 25.648 4.9086 25.4348C4.79029 25.2227 4.78816 24.7942 5.0397 24.1238V24.1206L5.04183 24.1174C5.16653 23.7614 5.07381 23.3148 5.01305 22.9247C4.95443 22.4973 4.92459 22.1691 5.05888 21.9228C5.22942 21.5669 5.48096 21.4976 5.79325 21.3548C6.10767 21.2109 6.47645 21.1395 6.76956 20.8549H6.77169V20.8517C7.04454 20.566 7.24599 20.2111 7.48367 19.9585C7.68618 19.7443 7.88869 19.6004 8.19032 19.6004ZM15.8207 9.92895C15.357 10.1432 14.8135 10.4992 14.2347 10.4992C13.657 10.4992 13.2008 10.2146 12.8715 10.0025C12.7063 9.85967 12.5731 9.71685 12.4729 9.64543C12.2981 9.50261 12.3194 9.28944 12.394 9.28944C12.5102 9.3065 12.5315 9.43333 12.6061 9.50368C12.7084 9.57402 12.8353 9.71578 12.9909 9.8586C13.301 10.0718 13.7156 10.3563 14.2336 10.3563C14.7506 10.3563 15.356 10.0718 15.7237 9.85967C15.9315 9.71578 16.198 9.50368 16.4143 9.36192C16.5806 9.2159 16.5732 9.07628 16.7117 9.07628C16.8492 9.09333 16.748 9.2191 16.555 9.4312C16.3186 9.60999 16.0731 9.77648 15.8196 9.93001V9.92895H15.8207ZM14.6674 8.24066V8.21721C14.661 8.19696 14.6813 8.17244 14.6983 8.16392C14.7772 8.11809 14.8902 8.13514 14.9755 8.16818C15.0426 8.16818 15.146 8.23959 15.1353 8.31207C15.1289 8.36429 15.0447 8.38241 14.9914 8.38241C14.9328 8.38241 14.8934 8.33658 14.8412 8.30994C14.7857 8.29075 14.6856 8.30141 14.6674 8.24066ZM14.0802 8.24066C14.0588 8.30248 13.9597 8.29288 13.9032 8.311C13.8531 8.33765 13.8116 8.38348 13.7551 8.38348C13.7007 8.38348 13.6154 8.36323 13.6091 8.311C13.5995 8.24066 13.7028 8.16925 13.7689 8.16925C13.8553 8.1362 13.965 8.11915 14.045 8.16392C14.0652 8.17351 14.0834 8.19589 14.077 8.21721V8.23959H14.0802V8.24066Z" fill="black"/>
</g>
<defs>
<clipPath id="clip0_3229_6679">
<rect width="25.5882" height="25.5882" fill="white" transform="translate(2.20593 2.20587)"/>
</clipPath>
</defs>
</svg>
